<?xml version="1.0" standalone="no"?><!DOCTYPE svg PUBLIC "-//W3C//DTD SVG 1.1//EN" "http://www.w3.org/Graphics/SVG/1.1/DTD/svg11.dtd"><svg t="1725521630582" class="icon" viewBox="0 0 1024 1024" version="1.1" xmlns="http://www.w3.org/2000/svg" p-id="8722" xmlns:xlink="http://www.w3.org/1999/xlink" width="16" height="16"><path d="M983.720617 312.704629a509.182939 509.182939 0 0 0-109.738438-162.687662A511.060269 511.060269 0 0 0 511.998933 0.00128a507.732276 507.732276 0 0 0-199.295584 40.277249 509.182939 509.182939 0 0 0-162.687662 109.738438A511.060269 511.060269 0 0 0 0 512.000213c0 69.119856 13.482639 136.14905 40.277249 199.295585a509.182939 509.182939 0 0 0 109.738438 162.687661A511.060269 511.060269 0 0 0 511.998933 1023.999147a507.732276 507.732276 0 0 0 199.295585-40.27725 509.182939 509.182939 0 0 0 162.687661-109.738438A511.060269 511.060269 0 0 0 1023.997867 512.000213a507.732276 507.732276 0 0 0-40.27725-199.295584z" fill="#0068ED" p-id="8723"></path><path d="M711.849184 712.106463a44.970573 44.970573 0 0 1-63.573201 0l-136.405049-136.405049-136.447716 136.405049a44.970573 44.970573 0 1 1-63.573201-63.701201L448.297733 512.000213 311.850017 375.552498A45.055906 45.055906 0 0 1 375.551218 311.893964L511.998933 448.256346l136.447716-136.405049a45.098573 45.098573 0 0 1 63.701201 63.701201L575.700134 512.000213l136.14905 136.405049a45.055906 45.055906 0 0 1 0 63.701201z" fill="#FFFFFF" p-id="8724"></path></svg>