<?xml version="1.0" standalone="no"?><!DOCTYPE svg PUBLIC "-//W3C//DTD SVG 1.1//EN" "http://www.w3.org/Graphics/SVG/1.1/DTD/svg11.dtd"><svg t="1725521340887" class="icon" viewBox="0 0 1024 1024" version="1.1" xmlns="http://www.w3.org/2000/svg" p-id="6811" xmlns:xlink="http://www.w3.org/1999/xlink" width="16" height="16"><path d="M977.67619 365.714286C914.285714 160.914286 728.990476 24.380952 516.87619 24.380952h-2.438095C243.809524 24.380952 26.819048 243.809524 24.380952 514.438095c0 63.390476 12.190476 124.342857 34.133334 182.857143 53.638095 134.095238 165.790476 238.933333 304.761904 280.380952a478.744381 478.744381 0 0 0 226.742858 14.628572c4.87619 0 12.190476-4.87619 14.628571-7.314286 7.314286-7.314286 9.752381-17.066667 7.314286-24.380952-2.438095-14.628571-14.628571-24.380952-26.819048-24.380953h-4.87619c-24.380952 4.87619-48.761905 7.314286-73.142857 7.314286-43.885714 0-85.333333-7.314286-126.780953-19.504762-65.828571-19.504762-126.780952-56.07619-175.542857-104.838095-80.457143-80.457143-126.780952-190.171429-124.342857-304.761905 2.438095-238.933333 195.047619-431.542857 431.542857-431.542857h2.438095c114.590476 0 221.866667 43.885714 302.32381 124.342857 48.761905 48.761905 85.333333 109.714286 104.838095 175.542857 19.504762 63.390476 24.380952 131.657143 12.190476 199.92381-2.438095 7.314286 0 14.628571 4.876191 21.942857s9.752381 9.752381 17.066666 12.190476h4.876191c7.314286 0 14.628571-2.438095 19.504762-7.314285 4.87619-4.87619 7.314286-9.752381 7.314285-14.628572 17.066667-80.457143 12.190476-158.47619-9.752381-229.180952z" fill="#1296db" p-id="6812"></path><path d="M424.228571 348.647619c0-34.133333-26.819048-60.952381-60.952381-60.952381s-60.952381 26.819048-60.95238 60.952381 26.819048 60.952381 60.95238 60.952381c17.066667 0 31.695238-7.314286 43.885715-17.066667 9.752381-12.190476 17.066667-29.257143 17.066666-43.885714zM626.590476 658.285714h51.2v-48.761904c0-36.571429 21.942857-68.266667 53.638095-82.895239l-7.314285-29.257142v-2.438096l-56.076191-165.790476-192.609524 248.685714-51.2-87.771428L219.428571 694.857143h334.019048c17.066667-21.942857 43.885714-36.571429 73.142857-36.571429z" fill="#1296db" p-id="6813"></path><path d="M924.038095 726.552381h-129.219047v-129.219048c0-9.752381-4.87619-17.066667-12.190477-21.942857-7.314286-4.87619-17.066667-4.87619-24.380952 0-7.314286 4.87619-12.190476 12.190476-12.190476 21.942857v129.219048h-129.219048c-9.752381 0-17.066667 4.87619-21.942857 12.190476s-4.87619 17.066667 0 24.380953c4.87619 7.314286 12.190476 12.190476 21.942857 12.190476h129.219048v129.219047c0 14.628571 12.190476 24.380952 24.380952 24.380953 14.628571 0 24.380952-12.190476 24.380953-24.380953v-129.219047h129.219047c9.752381 0 17.066667-4.87619 21.942857-12.190476 4.87619-7.314286 4.87619-17.066667 0-24.380953-4.87619-7.314286-12.190476-12.190476-21.942857-12.190476z" fill="#1296db" p-id="6814"></path></svg>